<svg xmlns="http://www.w3.org/2000/svg" xmlns:xlink="http://www.w3.org/1999/xlink" width="652" height="487" viewBox="0 0 652 487">
  <defs>
    <clipPath id="clip-path">
      <rect id="Rectangle_27" data-name="Rectangle 27" width="652" height="487" transform="translate(0 6998)" fill="#fff"/>
    </clipPath>
    <clipPath id="clip-path-2">
      <rect id="Rectangle_24" data-name="Rectangle 24" width="1382" height="778.023" fill="none"/>
    </clipPath>
  </defs>
  <g id="Mask_Group_8" data-name="Mask Group 8" transform="translate(0 -6998)" clip-path="url(#clip-path)">
    <g id="Group_42" data-name="Group 42" transform="translate(0 6995.977)" clip-path="url(#clip-path-2)">
      <g id="Group_41" data-name="Group 41" transform="translate(-248.573 -93.416)" opacity="0.49">
        <path id="Path_30" data-name="Path 30" d="M-129.223-14.643V-127.513c4.319-.633,8.45-1.771,12.582-1.778,78.2-.072,156.418-1.209,234.587.245,212.8,3.952,373.327,136.163,421.308,346.414,28.137,123.271,19.24,244.024-33.269,359.147-77.356,169.6-208.905,260.536-395,263.465-146.974,2.318-294.021.5-441.031.446-4.823,0-9.652-.857-15.3-1.389V-129.507h112.907V725.267h22.673c101.347,0,202.722-1.691,304.026.36,174.449,3.527,292.365-107.753,332.112-264.056,22.515-88.527,19.485-176.486-11.344-262.774C368.47,68.479,256-12.671,118.7-14.4c-75.06-.943-150.141-.223-225.208-.245Z" transform="translate(345.34 129.782)" fill="#fff" opacity="0.08"/>
        <path id="Path_31" data-name="Path 31" d="M68.448,608.8c25.229,0,50.465.259,75.693.273,19.55.014,39.193,1.562,58.677-.756a105.432,105.432,0,0,0,78.716-51.724,178.617,178.617,0,0,0,13.978-30.872c1.684-4.837,3.347-9.789,2.858-15-.835-8.9-11.2-8.7-17.772-8.875q-48.046-1.36-96.128-.489-11.455.205-22.911.468c-14.245.331-18.484-4.873-17.988-18.693.885-24.617.626-49.291.151-73.93-.223-11.452,2.526-17.3,15.54-17.239,84.432.425,168.863.029,253.295.705,5.125.043,14.446,6.752,14.648,10.725,3.138,61.7-1.807,122.113-27.762,179.566-33.722,74.657-90.679,121.191-170.317,128.576-86.26,8-173.419,6.212-260.2,7.882-4,.079-8.5-7.515-12.042-12.1-1.224-1.584-.245-4.9-.245-7.435q0-268.27-.007-536.54V146.085c4.1-1.216,7-2.85,9.883-2.822,83.755.849,167.812-2.253,251.178,3.98,86.8,6.493,150.357,53.718,186.923,135.062,2.764,6.147,4.369,12.827,7.392,21.918-39.639,0-76.931.317-114.209-.417-4.441-.086-9.53-5.24-13.035-9.206-23.847-26.906-53.128-40.891-89.161-40.546-38.149.36-76.305.439-114.447-.094-11.394-.158-15.749,4.16-15.727,15.31q.389,162.093.576,324.18c.007,4.319,1.339,8.63,2.447,15.346Z" transform="translate(260.828 53.285)" fill="none" stroke="#fff" stroke-width="3" opacity="0.15"/>
      </g>
    </g>
  </g>
</svg>
