<svg xmlns="http://www.w3.org/2000/svg" width="409" height="108.029" viewBox="0 0 409 108.029">
  <g id="Layer_1-2" transform="translate(0 -0.021)">
    <g id="Group_4" data-name="Group 4" transform="translate(0 -4.926)">
      <path id="Path_1" data-name="Path 1" d="M60.059,25.547a17.363,17.363,0,0,0-.854,2.327,7.225,7.225,0,0,0-.295,1.914A3.543,3.543,0,0,0,60.736,33a11.334,11.334,0,0,0,5.684,1.09c.972,0,1.944-.029,2.886-.118s1.826-.206,2.621-.324V25.164l2.062-.383V35.236c-1.207.236-2.474.412-3.8.56a35.275,35.275,0,0,1-3.888.236,19.984,19.984,0,0,1-4.27-.412,8.963,8.963,0,0,1-2.975-1.149,4.88,4.88,0,0,1-1.738-1.826,5.312,5.312,0,0,1-.56-2.5,10.143,10.143,0,0,1,.324-2.444,13.821,13.821,0,0,1,1.031-2.739l1.914.618Zm6.008-3.77a1.224,1.224,0,0,1-.383.972,1.317,1.317,0,0,1-.913.353,1.267,1.267,0,0,1-.913-.353,1.425,1.425,0,0,1,0-1.944,1.317,1.317,0,0,1,.913-.353,1.267,1.267,0,0,1,.913.353A1.224,1.224,0,0,1,66.067,21.777Zm3.269,0a1.224,1.224,0,0,1-.383.972,1.317,1.317,0,0,1-.913.353,1.267,1.267,0,0,1-.913-.353,1.425,1.425,0,0,1,0-1.944,1.317,1.317,0,0,1,.913-.353,1.267,1.267,0,0,1,.913.353A1.224,1.224,0,0,1,69.336,21.777ZM79.2,35.207a6.078,6.078,0,0,1-1.355.412,9.116,9.116,0,0,1-1.59.147h-.088V33.911h.088a5.171,5.171,0,0,0,1.119-.118,3.64,3.64,0,0,0,.8-.177V22.454l2.062-.383V33.616a7.115,7.115,0,0,0,.825.177,8.788,8.788,0,0,0,1.237.118,5.687,5.687,0,0,0,1.237-.118c.383-.088.677-.118.825-.177v-15.9l2.062-.383V35.118a5.975,5.975,0,0,1-.825.236c-.353.088-.707.147-1.09.206s-.766.088-1.149.118-.736.059-1.06.059a9.98,9.98,0,0,1-1.708-.147,6.343,6.343,0,0,1-1.384-.412Zm19.968,1.031a4.914,4.914,0,0,1-.383,2.091,4.156,4.156,0,0,1-1.031,1.384,4.039,4.039,0,0,1-1.5.766,6.917,6.917,0,0,1-1.767.236,5.385,5.385,0,0,1-.972-.059,5.622,5.622,0,0,1-.972-.177l.295-1.8c.265.029.5.059.766.088a6.7,6.7,0,0,0,.766.059,4.336,4.336,0,0,0,1.06-.118,2.4,2.4,0,0,0,.913-.442,2.429,2.429,0,0,0,.648-.854A3.937,3.937,0,0,0,97.226,36v-.236H94.752a5.756,5.756,0,0,1-2.5-.471A4.613,4.613,0,0,1,90.6,34.088a5.163,5.163,0,0,1-.913-1.738,7.69,7.69,0,0,1-.265-2.032,5.476,5.476,0,0,1,.471-2.386,4.8,4.8,0,0,1,1.237-1.679,5.647,5.647,0,0,1,1.8-1,6.333,6.333,0,0,1,2.091-.324,10.35,10.35,0,0,1,2.12.206,20.469,20.469,0,0,1,2.032.53V36.238Zm-2.062-9.13c-.383-.088-.766-.147-1.149-.206a7.543,7.543,0,0,0-1.149-.088,4.536,4.536,0,0,0-1.266.177,2.482,2.482,0,0,0-1.031.618,3.04,3.04,0,0,0-.707,1.119,4.841,4.841,0,0,0-.265,1.708,3.76,3.76,0,0,0,.8,2.562,3.141,3.141,0,0,0,2.444.884h2.327v-6.8Zm7.451-9.748V33.616a7.114,7.114,0,0,0,.825.177,5.867,5.867,0,0,0,1.237.118h.589v1.855h-.589a6.764,6.764,0,0,1-1.06-.059c-.383-.029-.766-.059-1.149-.118s-.736-.118-1.09-.177a4.358,4.358,0,0,1-.854-.236V17.713l2.062-.383Zm3.858,12.958a5.476,5.476,0,0,1,.471-2.386,4.8,4.8,0,0,1,1.237-1.679,5.647,5.647,0,0,1,1.8-1,6.333,6.333,0,0,1,2.091-.324,10.35,10.35,0,0,1,2.12.206,20.467,20.467,0,0,1,2.032.53v8.246h2.651v1.855H106.473V33.911h3.3a5.033,5.033,0,0,1-1.031-1.649,5.532,5.532,0,0,1-.353-1.944Zm7.687,3.593v-6.8c-.383-.088-.766-.147-1.149-.206a7.543,7.543,0,0,0-1.149-.088,4.536,4.536,0,0,0-1.266.177,2.482,2.482,0,0,0-1.031.618,3.04,3.04,0,0,0-.707,1.119,4.841,4.841,0,0,0-.265,1.708,4.072,4.072,0,0,0,.707,2.5,2.712,2.712,0,0,0,2.3.942H116.1Zm-2.8-12.134a1.224,1.224,0,0,1-.383.972,1.317,1.317,0,0,1-.913.353,1.267,1.267,0,0,1-.913-.353,1.425,1.425,0,0,1,0-1.944,1.317,1.317,0,0,1,.913-.353,1.267,1.267,0,0,1,.913.353A1.224,1.224,0,0,1,113.306,21.777Zm3.269,0a1.224,1.224,0,0,1-.383.972,1.317,1.317,0,0,1-.913.353,1.267,1.267,0,0,1-.913-.353,1.425,1.425,0,0,1,0-1.944,1.317,1.317,0,0,1,.913-.353,1.267,1.267,0,0,1,.913.353A1.224,1.224,0,0,1,116.575,21.777Zm7.215,13.43a6.342,6.342,0,0,1-1.384.412,9.979,9.979,0,0,1-1.708.147h-.589V33.911h.589a5.514,5.514,0,0,0,1.237-.118c.412-.088.677-.147.825-.177V29.906a4.922,4.922,0,0,1,1.3-3.74,4.863,4.863,0,0,1,3.446-1.207,5.371,5.371,0,0,1,2.268.442,4.709,4.709,0,0,1,1.561,1.119,4.622,4.622,0,0,1,.913,1.62,5.866,5.866,0,0,1,.294,1.885,6.211,6.211,0,0,1-1.149,3.652c.177.059.471.088.913.177a11.943,11.943,0,0,0,1.59.088h.589V35.8h-.589a14,14,0,0,1-2.3-.177,6.28,6.28,0,0,1-1.767-.53,5.452,5.452,0,0,1-1.266.53,6.174,6.174,0,0,1-1.5.177,10.619,10.619,0,0,1-1.738-.147,9.036,9.036,0,0,1-1.531-.412Zm1.06-1.59a9,9,0,0,0,2.238.295,3.1,3.1,0,0,0,2.5-.913,3.926,3.926,0,0,0,.8-2.621c0-2.356-.972-3.534-2.886-3.534a2.47,2.47,0,0,0-2,.766,3.362,3.362,0,0,0-.648,2.268v3.77Zm12.576,1.59a6.342,6.342,0,0,1-1.384.412,9.98,9.98,0,0,1-1.708.147h-.589V33.911h.589a5.514,5.514,0,0,0,1.237-.118c.412-.088.677-.147.825-.177V17.742l2.062-.383V33.616a7.115,7.115,0,0,0,.825.177,5.867,5.867,0,0,0,1.237.118h.589v1.855h-.589a9.98,9.98,0,0,1-1.708-.147,6.342,6.342,0,0,1-1.384-.412Zm7.716,0a5.975,5.975,0,0,1-.825.236c-.353.059-.707.118-1.09.177s-.766.088-1.149.118-.736.059-1.06.059h-.589V33.94h.589a5.514,5.514,0,0,0,1.237-.118c.412-.088.677-.147.825-.177V17.772l2.062-.383V35.236Zm14.2-1.3v1.855h-6.479V33.911h1.473V32.5a3.56,3.56,0,0,1,.265-1.473,2.449,2.449,0,0,1,.707-.972,2.588,2.588,0,0,1,1-.56,3.936,3.936,0,0,1,1.178-.177,5.719,5.719,0,0,1,.972.059,6.606,6.606,0,0,1,.8.147l-.295,1.531a2.594,2.594,0,0,0-.442-.059h-.589a1.39,1.39,0,0,0-1.3.53,3.08,3.08,0,0,0-.324,1.649v.766h3.063Zm2.5,1.855V17.742l2.062-.383V35.766h-2.062Zm12.752,0a5.719,5.719,0,0,1-.972-.059,7.607,7.607,0,0,1-1.09-.177v.707a4.914,4.914,0,0,1-.383,2.091,4.156,4.156,0,0,1-1.031,1.384,4.039,4.039,0,0,1-1.5.766,6.917,6.917,0,0,1-1.767.236,5.385,5.385,0,0,1-.972-.059,5.622,5.622,0,0,1-.972-.177l.295-1.8c.265.029.5.059.766.088a6.7,6.7,0,0,0,.766.059,3.954,3.954,0,0,0,1.031-.118,2.5,2.5,0,0,0,.884-.442,2.372,2.372,0,0,0,.618-.854A3.937,3.937,0,0,0,170.5,36V25.135l2.062-.383v8.865a7.116,7.116,0,0,0,.825.177,5.867,5.867,0,0,0,1.237.118h.589v1.855h-.589Zm-2.238,0V33.911h3V25.135l2.062-.383v2.975a8.649,8.649,0,0,1,2.916-2.062,8.224,8.224,0,0,1,3.269-.736,6.16,6.16,0,0,1,1.973.324,4.59,4.59,0,0,1,1.649,1.031,5.1,5.1,0,0,1,1.149,1.767,6.656,6.656,0,0,1,.442,2.562v3a7.113,7.113,0,0,0,.825.177,5.867,5.867,0,0,0,1.237.118h.589v1.855h-.589a8.838,8.838,0,0,1-3.122-.589,6.365,6.365,0,0,1-.854.177c-.442.059-1,.118-1.708.177s-1.5.118-2.444.147-1.973.059-3.122.059h-7.245ZM186.7,30.848a6.617,6.617,0,0,0-.236-1.855,3.589,3.589,0,0,0-.707-1.237,2.7,2.7,0,0,0-1.031-.707,3.625,3.625,0,0,0-1.3-.236,6.573,6.573,0,0,0-3.3.913,7.737,7.737,0,0,0-2.739,2.621V33.94h1.973c2.268,0,4.005-.029,5.242-.118s1.944-.147,2.091-.177v-2.8Zm-5.39-9.159a1.377,1.377,0,0,1,.383-1,1.422,1.422,0,0,1,2,0,1.5,1.5,0,0,1,0,2,1.422,1.422,0,0,1-2,0A1.331,1.331,0,0,1,181.308,21.689Zm19.879,9.071a4.189,4.189,0,0,0-.942-2.975,4.109,4.109,0,0,0-3.063-.972,10.654,10.654,0,0,0-1.355.059c-.471.059-.884.118-1.266.177a7.686,7.686,0,0,0-1.031.236c-.294.088-.53.147-.677.177l-.383-1.8c.177-.059.442-.147.8-.236a11.262,11.262,0,0,1,1.149-.236c.442-.088.884-.147,1.355-.206a11.276,11.276,0,0,1,1.384-.088,6.313,6.313,0,0,1,4.653,1.5,5.718,5.718,0,0,1,1.473,4.153v3a7.119,7.119,0,0,0,.825.177,5.867,5.867,0,0,0,1.237.118h.589v1.855h-.589a8.838,8.838,0,0,1-3.122-.589,6.366,6.366,0,0,1-.854.177c-.442.059-1,.118-1.708.177s-1.5.118-2.444.147-1.973.059-3.122.059h-3.357V33.823h2.533c1.384,0,2.533,0,3.5-.029.972,0,1.767-.059,2.386-.088s1.09-.059,1.414-.088a3.605,3.605,0,0,0,.618-.088V30.76Zm-5.36-9.071a1.377,1.377,0,0,1,.383-1,1.422,1.422,0,0,1,2,0,1.5,1.5,0,0,1,0,2,1.422,1.422,0,0,1-2,0A1.331,1.331,0,0,1,195.828,21.689Zm14.078,13.518a5.976,5.976,0,0,1-.825.236c-.353.059-.707.118-1.09.177s-.766.088-1.149.118-.736.059-1.06.059h-.589V33.94h.589a5.514,5.514,0,0,0,1.237-.118c.412-.088.677-.147.825-.177V17.772l2.062-.383V35.236Zm3.564.56V17.742l2.062-.383V35.766h-2.062Zm22.088,0a6.778,6.778,0,0,1-1.826-.206,2.26,2.26,0,0,1-1.208-.766c-.177.118-.383.265-.618.412a5.93,5.93,0,0,1-.736.412,3.942,3.942,0,0,1-.942.295,4.746,4.746,0,0,1-1.149.118,5.371,5.371,0,0,1-2.268-.442,4.675,4.675,0,0,1-1.59-1.178,5.171,5.171,0,0,1-.913-1.679,6.1,6.1,0,0,1-.294-1.944,7.577,7.577,0,0,1,.294-2.15,5.465,5.465,0,0,1,.972-1.885,5.028,5.028,0,0,1,1.738-1.355,5.734,5.734,0,0,1,2.592-.5,8.092,8.092,0,0,1,1.178.059q.619.088,1.149.177a8.9,8.9,0,0,1,1.031.236c.324.088.589.177.8.236V31.79a3.458,3.458,0,0,0,.265,1.561.88.88,0,0,0,.825.5h1.561v1.855h-.854Zm-6.479-1.62a4.06,4.06,0,0,0,1.679-.324,4.8,4.8,0,0,0,1.06-.618,7.321,7.321,0,0,1-.147-1.473V27.078a1.826,1.826,0,0,1-.324-.088c-.147-.029-.353-.059-.56-.088a4.887,4.887,0,0,0-.707-.059c-.265,0-.5-.029-.736-.029a3.288,3.288,0,0,0-1.473.324,3.234,3.234,0,0,0-1,.884,3.782,3.782,0,0,0-.56,1.266,6.175,6.175,0,0,0-.177,1.5,4.536,4.536,0,0,0,.177,1.266,2.99,2.99,0,0,0,.53,1.06,2.8,2.8,0,0,0,.913.736,3.176,3.176,0,0,0,1.355.265Zm.059-12.369a1.224,1.224,0,0,1-.383.972,1.317,1.317,0,0,1-.913.353,1.267,1.267,0,0,1-.913-.353,1.425,1.425,0,0,1,0-1.944,1.317,1.317,0,0,1,.913-.353,1.267,1.267,0,0,1,.913.353A1.224,1.224,0,0,1,229.137,21.777Zm3.269,0a1.224,1.224,0,0,1-.383.972,1.317,1.317,0,0,1-.913.353,1.267,1.267,0,0,1-.913-.353,1.425,1.425,0,0,1,0-1.944,1.317,1.317,0,0,1,.913-.353,1.267,1.267,0,0,1,.913.353A1.224,1.224,0,0,1,232.406,21.777Zm6.95,13.43a6.342,6.342,0,0,1-1.384.412,9.98,9.98,0,0,1-1.708.147h-.589V33.911h.589a5.514,5.514,0,0,0,1.237-.118c.412-.088.677-.147.825-.177V25.135l2.062-.383v8.865a7.117,7.117,0,0,0,.825.177,5.867,5.867,0,0,0,1.237.118h.589v1.855h-.589a9.979,9.979,0,0,1-1.708-.147,6.342,6.342,0,0,1-1.384-.412Zm1.384,3.564a1.374,1.374,0,0,1-.412,1.031,1.425,1.425,0,0,1-1.944,0,1.495,1.495,0,0,1,0-2.062,1.425,1.425,0,0,1,1.944,0A1.374,1.374,0,0,1,240.74,38.77Zm3.534-8.452a5.476,5.476,0,0,1,.471-2.386,4.8,4.8,0,0,1,1.237-1.679,5.646,5.646,0,0,1,1.8-1,6.332,6.332,0,0,1,2.091-.324,10.351,10.351,0,0,1,2.12.206,20.469,20.469,0,0,1,2.032.53v8.246h2.651v1.855H242.331V33.911h3.3a5.034,5.034,0,0,1-1.031-1.649,5.531,5.531,0,0,1-.353-1.944Zm7.687,3.593v-6.8c-.383-.088-.766-.147-1.149-.206a7.543,7.543,0,0,0-1.149-.088,4.536,4.536,0,0,0-1.266.177,2.482,2.482,0,0,0-1.031.618,3.04,3.04,0,0,0-.707,1.119,4.84,4.84,0,0,0-.265,1.708,4.072,4.072,0,0,0,.707,2.5,2.712,2.712,0,0,0,2.3.942h2.562Zm-2.8-12.134a1.224,1.224,0,0,1-.383.972,1.317,1.317,0,0,1-.913.353,1.267,1.267,0,0,1-.913-.353,1.425,1.425,0,0,1,0-1.944,1.317,1.317,0,0,1,.913-.353,1.267,1.267,0,0,1,.913.353A1.224,1.224,0,0,1,249.163,21.777Zm3.269,0a1.224,1.224,0,0,1-.383.972,1.317,1.317,0,0,1-.913.353,1.267,1.267,0,0,1-.913-.353,1.425,1.425,0,0,1,0-1.944,1.317,1.317,0,0,1,.913-.353,1.267,1.267,0,0,1,.913.353A1.224,1.224,0,0,1,252.432,21.777Zm8.276,13.43a5.976,5.976,0,0,1-.825.236c-.353.059-.707.118-1.09.177s-.766.088-1.149.118-.736.059-1.06.059H256V33.94h.589a5.514,5.514,0,0,0,1.237-.118c.412-.088.677-.147.825-.177V17.772l2.062-.383V35.236Zm3.534.56V17.742l2.062-.383V35.766h-2.062Zm22.088,0a6.778,6.778,0,0,1-1.826-.206,2.259,2.259,0,0,1-1.207-.766c-.177.118-.383.265-.618.412a5.93,5.93,0,0,1-.736.412,3.942,3.942,0,0,1-.942.295,4.745,4.745,0,0,1-1.149.118,5.371,5.371,0,0,1-2.268-.442,4.674,4.674,0,0,1-1.59-1.178,5.172,5.172,0,0,1-.913-1.679,6.1,6.1,0,0,1-.295-1.944,7.576,7.576,0,0,1,.295-2.15,5.465,5.465,0,0,1,.972-1.885A5.028,5.028,0,0,1,277.79,25.4a5.735,5.735,0,0,1,2.592-.5,8.092,8.092,0,0,1,1.178.059q.618.088,1.149.177a8.906,8.906,0,0,1,1.031.236c.324.088.589.177.8.236V31.79a3.458,3.458,0,0,0,.265,1.561.88.88,0,0,0,.825.5h1.561v1.855h-.854Zm-6.45-1.62a4.06,4.06,0,0,0,1.679-.324,4.8,4.8,0,0,0,1.06-.618,7.326,7.326,0,0,1-.147-1.473V27.078a1.827,1.827,0,0,1-.324-.088c-.147-.029-.353-.059-.56-.088a4.886,4.886,0,0,0-.707-.059c-.265,0-.5-.029-.736-.029a3.288,3.288,0,0,0-1.473.324,3.234,3.234,0,0,0-1,.884,3.783,3.783,0,0,0-.56,1.266,6.176,6.176,0,0,0-.177,1.5,4.537,4.537,0,0,0,.177,1.266,2.99,2.99,0,0,0,.53,1.06,2.8,2.8,0,0,0,.913.736,3.176,3.176,0,0,0,1.355.265Zm.029-12.369a1.224,1.224,0,0,1-.383.972,1.317,1.317,0,0,1-.913.353,1.267,1.267,0,0,1-.913-.353,1.425,1.425,0,0,1,0-1.944,1.317,1.317,0,0,1,.913-.353,1.267,1.267,0,0,1,.913.353A1.224,1.224,0,0,1,279.91,21.777Zm3.269,0a1.224,1.224,0,0,1-.383.972,1.317,1.317,0,0,1-.913.353,1.267,1.267,0,0,1-.913-.353,1.425,1.425,0,0,1,0-1.944,1.317,1.317,0,0,1,.913-.353,1.267,1.267,0,0,1,.913.353A1.224,1.224,0,0,1,283.179,21.777Zm17.936,13.43a6.98,6.98,0,0,1-1.06.383,6.323,6.323,0,0,1-1.62.177,6.57,6.57,0,0,1-1.59-.177,5.787,5.787,0,0,1-1.208-.412,4.919,4.919,0,0,1-1.266.412,8.053,8.053,0,0,1-1.473.147,6.079,6.079,0,0,1-1.531-.177,5.785,5.785,0,0,1-1.207-.412,5.868,5.868,0,0,1-.677.236l-.8.177a7.465,7.465,0,0,1-.854.118c-.294.029-.56.059-.8.059h-.589V33.881h.589a7.147,7.147,0,0,0,1.06-.059,3.858,3.858,0,0,0,1-.236V25.105l2.062-.383v8.865a4.58,4.58,0,0,0,1.679.295,4.787,4.787,0,0,0,1.738-.295V25.105l2.062-.383v8.865a4.58,4.58,0,0,0,1.679.295,4.787,4.787,0,0,0,1.738-.295V25.105l2.062-.383v8.865a7.114,7.114,0,0,0,.825.177,5.868,5.868,0,0,0,1.237.118h.589v1.855h-.589a9.98,9.98,0,0,1-1.708-.147,6.341,6.341,0,0,1-1.384-.412Zm2.975.56V33.911h.589a7.147,7.147,0,0,0,1.06-.059,3.856,3.856,0,0,0,1-.236V25.135l2.062-.383v8.865a4.58,4.58,0,0,0,1.679.295,4.787,4.787,0,0,0,1.738-.295V25.135l2.062-.383v8.865a4.58,4.58,0,0,0,1.679.295,4.787,4.787,0,0,0,1.738-.295V25.135l2.062-.383V35.207a6.467,6.467,0,0,1-.648.177c-.295.059-.589.118-.942.177s-.707.088-1.09.147c-.383.029-.736.059-1.031.059a6.57,6.57,0,0,1-1.59-.177,5.787,5.787,0,0,1-1.207-.412,4.92,4.92,0,0,1-1.266.412,8.053,8.053,0,0,1-1.473.147,6.079,6.079,0,0,1-1.531-.177,5.786,5.786,0,0,1-1.207-.412,5.87,5.87,0,0,1-.677.236l-.8.177a7.462,7.462,0,0,1-.854.118c-.294.029-.559.059-.8.059h-.589Zm28.185.471a4.912,4.912,0,0,1-.383,2.091,4.155,4.155,0,0,1-1.031,1.384,4.04,4.04,0,0,1-1.5.766,6.917,6.917,0,0,1-1.767.236,5.386,5.386,0,0,1-.972-.059,5.624,5.624,0,0,1-.972-.177l.295-1.8c.265.029.5.059.766.088a6.7,6.7,0,0,0,.766.059,4.336,4.336,0,0,0,1.06-.118,2.4,2.4,0,0,0,.913-.442,2.429,2.429,0,0,0,.648-.854A3.937,3.937,0,0,0,330.33,36v-.236h-2.474a5.756,5.756,0,0,1-2.5-.471,4.613,4.613,0,0,1-1.649-1.207,5.162,5.162,0,0,1-.913-1.738,7.69,7.69,0,0,1-.265-2.032A5.476,5.476,0,0,1,323,27.932a4.8,4.8,0,0,1,1.237-1.679,5.647,5.647,0,0,1,1.8-1,6.332,6.332,0,0,1,2.091-.324,10.35,10.35,0,0,1,2.12.206,20.463,20.463,0,0,1,2.032.53v8.246h2.651v1.855h-2.651v.471Zm-2.091-9.13c-.383-.088-.766-.147-1.149-.206a7.544,7.544,0,0,0-1.149-.088,4.536,4.536,0,0,0-1.266.177,2.482,2.482,0,0,0-1.031.618,3.041,3.041,0,0,0-.707,1.119,4.841,4.841,0,0,0-.265,1.708,3.759,3.759,0,0,0,.8,2.562,3.141,3.141,0,0,0,2.444.884h2.327v-6.8Zm.295-5.183V23.1H326.3V21.924h.942v-.913a1.9,1.9,0,0,1,.619-1.59,2.533,2.533,0,0,1,1.5-.471,3.22,3.22,0,0,1,.589.029,1.461,1.461,0,0,1,.383.088l-.147,1.031a1.139,1.139,0,0,1-.265-.029h-.383a.968.968,0,0,0-.854.324,1.913,1.913,0,0,0-.206,1.06v.5h1.973Zm6.391,7.952a4.922,4.922,0,0,1,1.3-3.74,4.863,4.863,0,0,1,3.446-1.207,6.391,6.391,0,0,1,2.032.324,4.432,4.432,0,0,1,1.59,1,4.769,4.769,0,0,1,1.031,1.679,7.207,7.207,0,0,1,.353,2.356,6.907,6.907,0,0,1-.324,2.091,5.363,5.363,0,0,1-1,1.738,4.782,4.782,0,0,1-1.708,1.178,6.144,6.144,0,0,1-2.444.442,10.62,10.62,0,0,1-1.738-.147,9.038,9.038,0,0,1-1.531-.412,6.341,6.341,0,0,1-1.384.412,9.979,9.979,0,0,1-1.708.147h-.589V33.881h.589a5.514,5.514,0,0,0,1.237-.118c.412-.088.677-.147.825-.177V29.876Zm2.062,3.74a9,9,0,0,0,2.238.295,3.1,3.1,0,0,0,2.5-.913,3.926,3.926,0,0,0,.8-2.621c0-2.356-.972-3.534-2.886-3.534a2.47,2.47,0,0,0-2,.766,3.363,3.363,0,0,0-.648,2.268v3.77Z" transform="translate(60.24 13.616)" fill="#00413a"/>
      <text id="GREEN_DOME_CONTRACTING" data-name="GREEN DOME CONTRACTING" transform="translate(114 83.424)" fill="#00413a" font-size="19" font-family="Arial"><tspan x="0" y="0" letter-spacing="0.05em">GREEN DOME </tspan><tspan y="0" letter-spacing="0.03em">C</tspan><tspan y="0" letter-spacing="0.05em">ONT</tspan><tspan y="0" letter-spacing="0.08em">R</tspan><tspan y="0" letter-spacing="0.03em">A</tspan><tspan y="0" letter-spacing="0.069em">C</tspan><tspan y="0" letter-spacing="0.05em">TIN</tspan><tspan y="0">G</tspan></text>
    </g>
    <path id="Path_2" data-name="Path 2" d="M24.31,12.8V.249A11.134,11.134,0,0,1,25.718.057c8.793,0,17.587-.128,26.38.021C76.024.527,94.08,15.232,99.459,38.624c3.159,13.724,2.156,27.148-3.735,39.954C87.037,97.446,72.246,107.562,51.309,107.9c-16.52.256-33.06.064-49.58.043-.534,0-1.088-.085-1.729-.149V.036H12.7v95.1h2.54c11.4,0,22.794-.192,34.192.043,19.614.384,32.868-11.995,37.35-29.389A48.528,48.528,0,0,0,85.5,36.554,35.026,35.026,0,0,0,52.184,12.842c-8.431-.107-16.882-.021-25.313-.021H24.31" transform="translate(0 0.015)" fill="#00413a"/>
    <path id="Path_3" data-name="Path 3" d="M24.053,62.044c5.528,0,10.864.107,16.178-.064a8.442,8.442,0,0,0,3.82-1.6,12.821,12.821,0,0,0,5.08-6.552c1.345-3.586,1.281-3.692-2.583-3.692-4.012,0-8.025-.064-12.016.021-1.6.043-2.07-.534-2.028-2.07.107-2.732.064-5.485,0-8.217-.021-1.281.277-1.921,1.75-1.921,9.5.043,19,0,28.472.085.576,0,1.622.747,1.643,1.2.363,6.872-.192,13.6-3.116,19.977-3.8,8.3-10.2,13.489-19.145,14.3-9.69.9-19.508.683-29.261.875-.448,0-.96-.832-1.345-1.345-.128-.171-.021-.555-.021-.832V10.585a5.39,5.39,0,0,1,1.11-.32c9.412.085,18.867-.256,28.237.448,9.754.726,16.9,5.976,21.023,15.026.32.683.491,1.43.832,2.433-4.461,0-8.644.043-12.849-.043-.491,0-1.067-.576-1.473-1.024a12.747,12.747,0,0,0-10.031-4.5q-6.435.064-12.87,0c-1.281,0-1.771.47-1.771,1.707q.032,18.024.064,36.07a11.543,11.543,0,0,0,.277,1.707" transform="translate(12.977 11.626)" fill="#00413a"/>
  </g>
</svg>
