<svg xmlns="http://www.w3.org/2000/svg" width="101.219" height="108.029" viewBox="0 0 101.219 108.029">
  <g id="logo_icon" data-name="logo icon" transform="translate(767 380)">
    <path id="Path_38" data-name="Path 38" d="M24.31,12.8V.249A11.134,11.134,0,0,1,25.718.057c8.793,0,17.587-.128,26.38.021C76.024.527,94.08,15.232,99.459,38.624c3.159,13.724,2.156,27.148-3.735,39.954C87.037,97.446,72.246,107.562,51.309,107.9c-16.52.256-33.06.064-49.58.043-.534,0-1.088-.085-1.729-.149V.036H12.7v95.1h2.54c11.4,0,22.794-.192,34.192.043,19.614.384,32.868-11.995,37.35-29.389A48.528,48.528,0,0,0,85.5,36.554,35.026,35.026,0,0,0,52.184,12.842c-8.431-.107-16.882-.021-25.313-.021H24.31" transform="translate(-767 -380.006)" fill="#00413a"/>
    <path id="Path_39" data-name="Path 39" d="M24.053,62.044c5.528,0,10.864.107,16.178-.064a8.442,8.442,0,0,0,3.82-1.6,12.821,12.821,0,0,0,5.08-6.552c1.345-3.586,1.281-3.692-2.583-3.692-4.012,0-8.025-.064-12.016.021-1.6.043-2.07-.534-2.028-2.07.107-2.732.064-5.485,0-8.217-.021-1.281.277-1.921,1.75-1.921,9.5.043,19,0,28.472.085.576,0,1.622.747,1.643,1.2.363,6.872-.192,13.6-3.116,19.977-3.8,8.3-10.2,13.489-19.145,14.3-9.69.9-19.508.683-29.261.875-.448,0-.96-.832-1.345-1.345-.128-.171-.021-.555-.021-.832V10.585a5.39,5.39,0,0,1,1.11-.32c9.412.085,18.867-.256,28.237.448,9.754.726,16.9,5.976,21.023,15.026.32.683.491,1.43.832,2.433-4.461,0-8.644.043-12.849-.043-.491,0-1.067-.576-1.473-1.024a12.747,12.747,0,0,0-10.031-4.5q-6.435.064-12.87,0c-1.281,0-1.771.47-1.771,1.707q.032,18.024.064,36.07a11.543,11.543,0,0,0,.277,1.707" transform="translate(-754.023 -368.395)" fill="#00413a"/>
  </g>
</svg>
