<svg xmlns="http://www.w3.org/2000/svg" xmlns:xlink="http://www.w3.org/1999/xlink" width="885.5" height="514.074" viewBox="0 0 885.5 514.074">
  <defs>
    <linearGradient id="linear-gradient" y1="0.5" x2="1" y2="0.5" gradientUnits="objectBoundingBox">
      <stop offset="0" stop-color="#006050"/>
      <stop offset="1" stop-color="#003a33"/>
    </linearGradient>
    <clipPath id="clip-path">
      <rect id="Rectangle_22" data-name="Rectangle 22" width="885.5" height="514.074" fill="url(#linear-gradient)"/>
    </clipPath>
    <clipPath id="clip-path-2">
      <rect id="Rectangle_21" data-name="Rectangle 21" width="885.5" height="589.495" fill="none"/>
    </clipPath>
    <linearGradient id="linear-gradient-2" x1="0.5" y1="0" x2="0.5" y2="1" xlink:href="#linear-gradient"/>
  </defs>
  <g id="Mask_Group_6" data-name="Mask Group 6" clip-path="url(#clip-path)">
    <g id="Group_39" data-name="Group 39" transform="translate(0 -52.381)" clip-path="url(#clip-path-2)">
      <g id="Group_38" data-name="Group 38" transform="translate(-159.27 7.49)" opacity="0.49">
        <path id="Path_28" data-name="Path 28" d="M-206.534-56.495v-71.843c2.774-.4,5.427-1.127,8.081-1.132,50.224-.046,100.463-.77,150.669.156C88.89-126.8,191.992-42.645,222.809,91.183c18.071,78.464,12.357,155.324-21.368,228.6-49.683,107.955-134.174,165.834-253.7,167.7-94.4,1.475-188.841.321-283.261.284-3.1,0-6.2-.545-9.824-.884v-616.49h72.517V414.466h14.563c65.092,0,130.2-1.077,195.267.229,112.043,2.245,187.777-68.586,213.306-168.074,14.461-56.349,12.514-112.335-7.286-167.259C113.119-3.587,40.88-55.239-47.3-56.339c-48.209-.6-96.431-.142-144.645-.156h-14.59Z" transform="translate(345.34 129.782)" opacity="0.08" fill="url(#linear-gradient-2)"/>
        <path id="Path_29" data-name="Path 29" d="M28.145,495.979c16.165,0,32.335.2,48.5.207,12.526.011,25.112,1.183,37.6-.573,20.975-2.95,39.658-17.321,50.437-39.191a148.47,148.47,0,0,0,8.956-23.391c1.079-3.665,2.145-7.417,1.831-11.366-.535-6.746-7.176-6.588-11.387-6.724q-30.785-1.031-61.593-.371-7.34.156-14.68.355c-9.127.251-11.844-3.692-11.525-14.163.567-18.652.4-37.347.1-56.015-.143-8.677,1.619-13.111,9.957-13.062,54.1.322,108.2.022,162.3.534,3.284.033,9.256,5.116,9.385,8.126,2.011,46.75-1.158,92.523-17.788,136.055-21.607,56.566-58.1,91.825-109.129,97.42-55.27,6.059-111.116,4.707-166.723,5.972-2.564.06-5.447-5.694-7.716-9.168-.784-1.2-.157-3.714-.157-5.634q0-203.264,0-406.528V145.391c2.629-.922,4.487-2.16,6.332-2.138,53.665.644,107.524-1.707,160.94,3.016,55.616,4.919,96.34,40.7,119.768,102.334,1.771,4.658,2.8,9.719,4.737,16.607-25.4,0-49.293.24-73.178-.316-2.846-.065-6.106-3.97-8.352-6.975-15.279-20.386-34.041-30.983-57.129-30.721-24.443.273-48.892.333-73.33-.071-7.3-.12-10.091,3.152-10.077,11.6q.249,122.816.369,245.626c0,3.272.858,6.539,1.568,11.627Z" transform="translate(183.534 -52.898)" fill="none" stroke="#fff" stroke-width="3" opacity="0.15"/>
      </g>
    </g>
  </g>
</svg>
