<svg xmlns="http://www.w3.org/2000/svg" width="66.956" height="78.588" viewBox="0 0 66.956 78.588">
  <g id="svgexport-20_75_" data-name="svgexport-20 (75)" transform="translate(-57.256 -23.77)">
    <path id="Path_13" data-name="Path 13" d="M111.143,38.085a1.19,1.19,0,0,1,1.19-1.191h8.185a1.19,1.19,0,0,1,1.19,1.191v8.184a1.191,1.191,0,0,1-2.381,0V39.275h-6.994A1.191,1.191,0,0,1,111.143,38.085ZM59.757,46.27V38.086a1.19,1.19,0,0,1,1.19-1.191h8.185a1.191,1.191,0,1,1,0,2.382H62.138V46.27a1.191,1.191,0,0,1-2.382,0ZM121.83,72.362l-5.986,1.944a1.19,1.19,0,0,0-.785.837,24.934,24.934,0,0,1-2.7,6.5,1.191,1.191,0,0,0-.036,1.147l2.859,5.612-4.925,4.925-5.612-2.859a1.191,1.191,0,0,0-1.147.037A24.96,24.96,0,0,1,97,93.2a1.192,1.192,0,0,0-.836.786l-1.945,5.987H87.252l-1.946-5.987a1.189,1.189,0,0,0-.836-.785,25.008,25.008,0,0,1-6.5-2.7,1.187,1.187,0,0,0-1.147-.037l-5.612,2.859-4.926-4.925,2.859-5.612a1.19,1.19,0,0,0-.036-1.147,24.945,24.945,0,0,1-2.7-6.5,1.19,1.19,0,0,0-.785-.837l-5.987-1.944V70.071H71.2a19.566,19.566,0,0,0,39.06,0h11.566ZM65.608,55.575V67.689h3.749V61.361a2.605,2.605,0,0,1,2.6-2.6h5.266a2.605,2.605,0,0,1,2.6,2.6v6.328h3.748V55.574l-8.983-9.2ZM93.217,31.563v4.891L81.338,41.528V36.636Zm9.475,9.588L95.6,36.59V31.94l7.093,4.561ZM85.956,64.585l7.262-3.1v6.2H85.956Zm7.261-18.062v4.892l-7.383,3.153a1.192,1.192,0,0,0-.218-.312L82.525,51.09Zm0-2.589L81.338,49.009V44.118l11.879-5.075Zm9.475,4.7v-4.65L95.6,39.421V44.07Zm0,14.96L95.6,59.03V54.381l7.093,4.561Zm0-7.48-7.162-4.6H95.6V46.9l7.093,4.561Zm-16.737,1V62l7.262-3.1V54ZM95.6,67.689h7.093V66.421L95.6,61.862Zm12.277,2.381H73.591a17.184,17.184,0,0,0,34.285,0ZM77.445,67.689H71.738V61.361a.224.224,0,0,1,.22-.221h5.266a.223.223,0,0,1,.22.221Zm36.7-20.675h-9.074V67.688h9.84V47.781A.777.777,0,0,0,114.147,47.014Zm8.873,20.674h-5.726V47.781a3.151,3.151,0,0,0-3.147-3.148h-9.074V35.85a1.192,1.192,0,0,0-.546-1L95.6,29.11V24.962a1.191,1.191,0,1,0-2.381,0v4.011L79.679,34.756a1.192,1.192,0,0,0-.723,1.1V47.437l-3.514-3.6a1.192,1.192,0,0,0-1.7,0L63.565,54.256a1.191,1.191,0,0,0-.339.832v12.6h-4.78a1.191,1.191,0,0,0-1.191,1.191v4.348a1.19,1.19,0,0,0,.823,1.133l6.2,2.012a27.311,27.311,0,0,0,2.453,5.914l-2.959,5.808a1.191,1.191,0,0,0,.219,1.383l6.149,6.148a1.188,1.188,0,0,0,1.383.22l5.808-2.96a27.22,27.22,0,0,0,5.914,2.453l2.013,6.2a1.191,1.191,0,0,0,1.132.823h8.7a1.191,1.191,0,0,0,1.133-.823l2.013-6.2a27.32,27.32,0,0,0,5.914-2.453l5.808,2.959a1.188,1.188,0,0,0,1.383-.22l6.148-6.148a1.191,1.191,0,0,0,.219-1.383l-2.959-5.808a27.322,27.322,0,0,0,2.453-5.914l6.2-2.013a1.19,1.19,0,0,0,.823-1.133V68.879a1.192,1.192,0,0,0-1.191-1.191Z" transform="translate(0)" fill="#00413A" fill-rule="evenodd"/>
  </g>
</svg>
