<svg xmlns="http://www.w3.org/2000/svg" width="63.366" height="63" viewBox="0 0 63.366 63">
  <g id="svgexport-20_78_" data-name="svgexport-20 (78)" transform="translate(-6.134 -6.5)">
    <path id="Path_25" data-name="Path 25" d="M51.344,55.587a10.453,10.453,0,0,0-3.179-.431M40.892,27.483h0M31.346,25.67,7.5,11.9M27.279,36.529h0a1.906,1.906,0,0,1-.7-2.6l7.625-13.207,1.707.986a1.841,1.841,0,0,1,.674,2.515l-6.7,11.612A1.906,1.906,0,0,1,27.279,36.529Zm24.065-2.17h0m-3.85-5.852h0M28.468,59.032h0m20.955-.044h0M15.92,12.361,7.5,7.5V22.909L26.58,33.925m6.672-11.557L19.677,14.531M13.219,55.156h3.812V68.5H13.219Zm22.875,0h3.812V68.5H36.094Zm22.875,0h3.812V68.5H58.969ZM22.75,62.781V68.5m7.625-5.719V68.5M53.25,62.781V68.5m-7.625-5.719V68.5M13.219,62.781H7.5v3.878A1.841,1.841,0,0,0,9.341,68.5h3.878M24.01,62.781H17.031m19.063,0H28.306M17.031,68.5H36.094m26.687,0h3.878A1.841,1.841,0,0,0,68.5,66.659V62.781H62.781m-3.812,0H39.906m0,5.719H58.969M13.219,56.685a13.608,13.608,0,0,0-3.535-1.343A1.842,1.842,0,0,0,7.5,57.15v5.631m61,0V57.15a1.842,1.842,0,0,0-2.184-1.809,13.608,13.608,0,0,0-3.535,1.343m-26.687.789c-3.282-.517-3.908-2.317-8.261-2.317-5.083,0-5.083,2.455-10.167,2.455q-.318,0-.635-.014" fill="none" stroke="#fff" stroke-linecap="round" stroke-linejoin="round" stroke-width="2"/>
    <path id="Path_26" data-name="Path 26" d="M215.6,194.374a18.379,18.379,0,0,1,.551,3.088,1.18,1.18,0,0,1-1.18,1.286h-.014c-4.353,0-4.978,1.8-8.261,2.317m19.062.124q-.3.013-.635.014a13.048,13.048,0,0,1-1.414-.072,1.839,1.839,0,0,1-1.545-2.406,7,7,0,0,0,.715-2.811c-.183-1.394-1.657-2.463-2.011-3.708-.383-1.344.29-3.03-.259-4.212-.584-1.258-2.319-1.828-3.05-2.917-.77-1.146-.644-2.957-1.528-3.932-.927-1.023-2.758-1.079-3.755-1.934-1.057-.906-1.389-2.693-2.457-3.431-1.168-.807-2.979-.485-4.075-1.12-1.286-.746-1.9-2.458-2.952-3.014a5.068,5.068,0,0,0-1.362-.465l-3.805,6.591h0l9.4,5.425a18.4,18.4,0,0,1,6.942,7.1" transform="translate(-166.792 -143.592)" fill="none" stroke="#fff" stroke-linecap="round" stroke-linejoin="round" stroke-width="2"/>
  </g>
</svg>
