<svg xmlns="http://www.w3.org/2000/svg" width="80.834" height="80.834" viewBox="0 0 80.834 80.834">
  <g id="svgexport-20_77_" data-name="svgexport-20 (77)" transform="translate(-1 -1)">
    <path id="Path_24" data-name="Path 24" d="M77.08,69.631A1.268,1.268,0,0,1,75.918,71l-7.99.641a1.268,1.268,0,0,1-1.365-1.365l.641-7.99a1.268,1.268,0,1,1,2.528.2l-.361,4.494a37.878,37.878,0,0,0,3.176-47.147,1.268,1.268,0,0,1,2.083-1.447,40.413,40.413,0,0,1-3.524,50.453l4.609-.37A1.27,1.27,0,0,1,77.08,69.631ZM63,72.548a37.879,37.879,0,0,1-47.147-3.177l4.494.361a1.268,1.268,0,1,0,.2-2.528l-7.99-.641A1.268,1.268,0,0,0,11.2,67.928l.641,7.99a1.268,1.268,0,0,0,2.528-.2L14,71.106a40.413,40.413,0,0,0,50.453,3.524A1.268,1.268,0,1,0,63,72.548ZM3.536,41.417a37.678,37.678,0,0,1,9.927-25.562L13.1,20.35a1.268,1.268,0,0,0,2.528.2l.641-7.99A1.268,1.268,0,0,0,14.906,11.2l-7.99.641a1.268,1.268,0,1,0,.2,2.528L11.728,14A40.413,40.413,0,0,0,8.2,64.449,1.268,1.268,0,1,0,10.287,63,37.653,37.653,0,0,1,3.536,41.417Zm16.3-31.13a37.878,37.878,0,0,1,47.147,3.177L62.485,13.1a1.268,1.268,0,1,0-.2,2.528l7.99.641a1.268,1.268,0,0,0,1.365-1.365L71,6.917a1.268,1.268,0,0,0-2.528.2l.37,4.609A40.413,40.413,0,0,0,18.385,8.2a1.268,1.268,0,1,0,1.447,2.083ZM65.854,57.328a1.268,1.268,0,0,1,0,1.793l-6.733,6.733a1.268,1.268,0,0,1-1.793,0l-2.659-2.659a25.208,25.208,0,0,1-7.222,2.994v3.759a1.268,1.268,0,0,1-1.268,1.268H36.657a1.268,1.268,0,0,1-1.268-1.268V66.188a25.194,25.194,0,0,1-7.222-2.994l-2.659,2.66a1.268,1.268,0,0,1-1.793,0l-6.733-6.733a1.268,1.268,0,0,1,0-1.793l2.659-2.659a25.209,25.209,0,0,1-2.994-7.222H12.887a1.268,1.268,0,0,1-1.268-1.268V36.657a1.268,1.268,0,0,1,1.268-1.268h3.759a25.194,25.194,0,0,1,2.994-7.222l-2.66-2.66a1.268,1.268,0,0,1,0-1.793l6.733-6.733a1.268,1.268,0,0,1,1.793,0l2.66,2.659a25.212,25.212,0,0,1,7.222-2.993V12.887a1.268,1.268,0,0,1,1.268-1.268h9.522a1.268,1.268,0,0,1,1.268,1.268v3.759a25.194,25.194,0,0,1,7.222,2.994l2.66-2.66a1.268,1.268,0,0,1,1.793,0l6.733,6.733a1.268,1.268,0,0,1,0,1.793l-2.66,2.66a25.212,25.212,0,0,1,2.994,7.222h3.759a1.268,1.268,0,0,1,1.268,1.268v9.522a1.268,1.268,0,0,1-1.268,1.268H66.188a25.193,25.193,0,0,1-2.994,7.222Zm-2.69.9-2.483-2.483a1.268,1.268,0,0,1-.158-1.6,22.723,22.723,0,0,0,3.4-8.211,1.268,1.268,0,0,1,1.244-1.02h3.51V37.924h-3.51a1.268,1.268,0,0,1-1.244-1.02,22.72,22.72,0,0,0-3.4-8.21,1.268,1.268,0,0,1,.158-1.6l2.483-2.484-4.94-4.94-2.484,2.483a1.268,1.268,0,0,1-1.6.158,22.726,22.726,0,0,0-8.21-3.4,1.268,1.268,0,0,1-1.02-1.244V14.155H37.924v3.51a1.268,1.268,0,0,1-1.02,1.244,22.721,22.721,0,0,0-8.211,3.4,1.269,1.269,0,0,1-1.6-.158L24.61,19.671l-4.94,4.94,2.483,2.483a1.268,1.268,0,0,1,.158,1.6,22.726,22.726,0,0,0-3.4,8.211,1.268,1.268,0,0,1-1.244,1.02H14.155V44.91h3.509a1.268,1.268,0,0,1,1.244,1.02,22.722,22.722,0,0,0,3.4,8.211,1.268,1.268,0,0,1-.158,1.6L19.67,58.225l4.94,4.94,2.483-2.483a1.268,1.268,0,0,1,1.6-.158,22.725,22.725,0,0,0,8.211,3.4,1.268,1.268,0,0,1,1.02,1.244v3.509H44.91V65.17a1.268,1.268,0,0,1,1.02-1.244,22.724,22.724,0,0,0,8.211-3.4,1.269,1.269,0,0,1,1.6.158l2.483,2.483ZM57.521,41.417a16.1,16.1,0,1,1-16.1-16.1A16.122,16.122,0,0,1,57.521,41.417Zm-2.536,0A13.568,13.568,0,1,0,41.417,54.985,13.583,13.583,0,0,0,54.985,41.417Zm-4.538-7.137a3.423,3.423,0,0,1,0,4.835L40.483,49.08a3.42,3.42,0,0,1-5.2-.427l-4.392-5.527a3.414,3.414,0,0,1,5.346-4.249l2.115,2.661,7.258-7.258A3.422,3.422,0,0,1,50.447,34.281Zm-1.793,1.793a.883.883,0,0,0-1.248,0l-8.263,8.263a1.268,1.268,0,0,1-1.889-.108l-3-3.774a.878.878,0,0,0-1.375,1.093L37.293,47.1c.016.02.032.042.047.063a.876.876,0,0,0,.65.376.863.863,0,0,0,.7-.255l9.964-9.964a.883.883,0,0,0,0-1.248Z" fill="#00413A"/>
  </g>
</svg>
