<svg xmlns="http://www.w3.org/2000/svg" xmlns:xlink="http://www.w3.org/1999/xlink" width="67" height="67" viewBox="0 0 67 67">
  <defs>
    <clipPath id="clip-path">
      <path id="Path_23" data-name="Path 23" d="M0-682.665H67v67H0Z" transform="translate(0 682.665)" fill="#fff"/>
    </clipPath>
  </defs>
  <g id="svgexport-20_76_" data-name="svgexport-20 (76)" transform="translate(0 -0.002)">
    <g id="Group_24" data-name="Group 24" transform="translate(0 0.002)" clip-path="url(#clip-path)">
      <path id="Path_14" data-name="Path 14" d="M-46.174-89.491l1.023-1.021,2.677-2.671a3.551,3.551,0,0,0,0-5.014,3.57,3.57,0,0,0-5.025,0L-51.2-94.5" transform="translate(82.541 114.027)" fill="none" stroke="#fff" stroke-linecap="round" stroke-linejoin="round" stroke-width="2"/>
      <path id="Path_15" data-name="Path 15" d="M-91.971-8.318a3.128,3.128,0,0,0-4.4,0l-4.7,4.693a3.107,3.107,0,0,0,0,4.388,3.124,3.124,0,0,0,4.4,0l4.7-4.693A3.106,3.106,0,0,0-91.971-8.318Z" transform="translate(145.549 40.128)" fill="none" stroke="#fff" stroke-linecap="round" stroke-linejoin="round" stroke-width="2"/>
      <path id="Path_16" data-name="Path 16" d="M-58.868-59.883l.511-.51a3.553,3.553,0,0,0-.041-4.973,3.57,3.57,0,0,0-5.025,0l-1.852,1.848" transform="translate(103.489 86.21)" fill="none" stroke="#fff" stroke-linecap="round" stroke-linejoin="round" stroke-width="2"/>
      <path id="Path_17" data-name="Path 17" d="M-395.966-502.255a10.754,10.754,0,0,1,.971-4.954l-16.24-16.207m18.677,7.159,3.315,3.308A10.792,10.792,0,0,1-377.15-510.8a10.7,10.7,0,0,1,2.942,9.581c-.668,3.535-2.535.86-2.916.481l-4.558-4.548a4.3,4.3,0,0,0-5.835-.2,4.272,4.272,0,0,0,.2,5.822l4.558,4.548c.381.38,3.061,2.242-.482,2.909a10.755,10.755,0,0,1-9.6-2.935,10.739,10.739,0,0,1-1.96-2.689m-19.208-39.827-4.069-4.064a10.732,10.732,0,0,0-2.15-12.065,10.755,10.755,0,0,0-9.6-2.935c-3.543.667-.862,2.529-.482,2.909l4.558,4.548a4.272,4.272,0,0,1,.2,5.822,4.3,4.3,0,0,1-5.835-.2l-4.558-4.548c-.381-.38-2.247-3.055-2.916.48a10.7,10.7,0,0,0,2.942,9.581,10.792,10.792,0,0,0,12.092,2.146l4.308,4.3" transform="translate(440.038 557.95)" fill="none" stroke="#fff" stroke-linecap="round" stroke-linejoin="round" stroke-width="2"/>
      <path id="Path_18" data-name="Path 18" d="M-156.353-81.114l5.63,5.617a2.233,2.233,0,0,1,0,3.155l-5.006,5a2.246,2.246,0,0,1-3.162,0L-172.716-81.14a2.234,2.234,0,0,1,0-3.155l5.006-5a2.245,2.245,0,0,1,3.162,0l4.95,4.939" transform="translate(175.226 132.659)" fill="none" stroke="#fff" stroke-linecap="round" stroke-linejoin="round" stroke-width="2"/>
      <path id="Path_19" data-name="Path 19" d="M0-88.515l6.668-6.653C9.165-97.66,9.65-97.123,12.6-96.7a8.153,8.153,0,0,0,4.723-1.445" transform="translate(24.503 145.677)" fill="none" stroke="#fff" stroke-linecap="round" stroke-linejoin="round" stroke-width="2"/>
      <path id="Path_20" data-name="Path 20" d="M-89.579-9.5a3.57,3.57,0,0,0-5.025,0l-3.685,3.676a3.544,3.544,0,0,0,0,5.014,3.563,3.563,0,0,0,5.025,0l3.685-3.676A3.544,3.544,0,0,0-89.579-9.5Z" transform="translate(138.755 36.295)" fill="none" stroke="#fff" stroke-linecap="round" stroke-linejoin="round" stroke-width="2"/>
      <path id="Path_21" data-name="Path 21" d="M-277.9-110.058c.1-.98-1.519-2.458-3.184-4.12l-7.321-7.3a1.919,1.919,0,0,0-2.7,0l-6.044,6.031a6.885,6.885,0,0,0-1.882,5.2c.168,2.771-1.124,5.573-4.954,9.391l-4.159,4.15m18.106-16.371c.063.067,2.539,2.533,2.6,2.6,1.96,1.892,5.913,3.524,8.463,1.706" transform="translate(318.825 140.08)" fill="none" stroke="#fff" stroke-linecap="round" stroke-linejoin="round" stroke-width="2"/>
      <path id="Path_22" data-name="Path 22" d="M-12.384,0c2.184,2.179,1.579,6.314-1.348,9.234" transform="translate(41.169 26.998)" fill="none" stroke="#fff" stroke-linecap="round" stroke-linejoin="round" stroke-width="2"/>
    </g>
  </g>
</svg>
